<?xml version="1.0" encoding="UTF-8"?>
<!DOCTYPE svg PUBLIC "-//W3C//DTD SVG 1.1//EN" "http://www.w3.org/Graphics/SVG/1.1/DTD/svg11.dtd">
<svg xmlns="http://www.w3.org/2000/svg" version="1.1" width="422px" height="373px" style="shape-rendering:geometricPrecision; text-rendering:geometricPrecision; image-rendering:optimizeQuality; fill-rule:evenodd; clip-rule:evenodd" xmlns:xlink="http://www.w3.org/1999/xlink">
<g><path style="opacity:1" fill="#3cdbd8" d="M 188.5,66.5 C 187.518,69.9619 187.185,73.6286 187.5,77.5C 194.5,77.5 201.5,77.5 208.5,77.5C 208.815,73.6286 208.482,69.9619 207.5,66.5C 203.758,60.3566 205.425,56.3566 212.5,54.5C 218.017,56.1997 219.85,59.8664 218,65.5C 217.617,66.056 217.117,66.3893 216.5,66.5C 215.518,69.9619 215.185,73.6286 215.5,77.5C 222.913,78.1279 229.913,77.4612 236.5,75.5C 236.81,71.3005 236.143,67.3005 234.5,63.5C 234.517,61.4352 234.85,59.4352 235.5,57.5C 238.089,53.9783 241.089,53.645 244.5,56.5C 246.743,57.8117 249.41,58.4783 252.5,58.5C 255.167,58.3333 257.833,58.1667 260.5,58C 261.252,57.3292 261.586,56.4959 261.5,55.5C 266.065,50.5687 271.065,50.2354 276.5,54.5C 281.054,61.0063 280.054,66.5063 273.5,71C 267.262,72.7666 262.262,71.0999 258.5,66C 254.514,65.5012 250.514,65.3345 246.5,65.5C 244.612,67.9878 243.945,70.9878 244.5,74.5C 244.5,74.8333 244.5,75.1667 244.5,75.5C 247.337,77.4023 250.671,78.069 254.5,77.5C 254.5,81.1667 254.5,84.8333 254.5,88.5C 258.371,88.815 262.038,88.4816 265.5,87.5C 271.21,83.8813 274.876,85.548 276.5,92.5C 275.786,96.3734 273.452,98.7067 269.5,99.5C 267.402,99.0428 265.736,98.0428 264.5,96.5C 261.375,95.5206 258.042,95.1872 254.5,95.5C 254.175,102.687 254.509,109.687 255.5,116.5C 260.569,117.091 265.236,116.091 269.5,113.5C 271.598,113.957 273.264,114.957 274.5,116.5C 275.219,118.764 275.552,121.097 275.5,123.5C 272.134,128.166 268.134,128.666 263.5,125C 260.854,124.503 258.187,124.336 255.5,124.5C 254.509,131.313 254.175,138.313 254.5,145.5C 258.042,145.813 261.375,145.479 264.5,144.5C 270.275,140.866 274.275,142.366 276.5,149C 276.101,150.981 275.101,152.481 273.5,153.5C 272.349,158.65 272.183,163.984 273,169.5C 273.671,170.252 274.504,170.586 275.5,170.5C 280.472,175.199 280.805,180.365 276.5,186C 267.637,190.402 261.637,187.902 258.5,178.5C 259.154,176.885 259.654,175.218 260,173.5C 262.043,171.792 263.71,169.792 265,167.5C 265.773,162.748 265.607,158.081 264.5,153.5C 261.375,152.521 258.042,152.187 254.5,152.5C 254.5,153.5 254.5,154.5 254.5,155.5C 253.381,160.286 250.381,162.953 245.5,163.5C 245.557,165.884 245.223,168.218 244.5,170.5C 245.217,173.488 246.217,176.321 247.5,179C 246.011,185.539 242.345,187.373 236.5,184.5C 232.714,181.354 232.548,178.021 236,174.5C 236.498,171.183 236.665,167.85 236.5,164.5C 229.687,163.509 222.687,163.175 215.5,163.5C 215.185,167.371 215.518,171.038 216.5,174.5C 220.526,179.858 219.193,183.858 212.5,186.5C 205.323,184.106 203.823,179.773 208,173.5C 208.497,170.854 208.664,168.187 208.5,165.5C 201.913,163.539 194.913,162.872 187.5,163.5C 187.185,167.371 187.518,171.038 188.5,174.5C 192.114,180.22 190.614,184.22 184,186.5C 177.46,182.585 170.294,181.418 162.5,183C 157.207,189.613 151.374,190.113 145,184.5C 144.209,183.255 143.709,181.922 143.5,180.5C 144.219,178.236 144.552,175.903 144.5,173.5C 149.839,166.115 155.505,165.782 161.5,172.5C 166.396,174.446 171.729,175.113 177.5,174.5C 177.833,174.5 178.167,174.5 178.5,174.5C 180.414,171.316 181.08,167.649 180.5,163.5C 176.5,163.5 172.5,163.5 168.5,163.5C 168.5,159.833 168.5,156.167 168.5,152.5C 164.629,152.185 160.962,152.518 157.5,153.5C 156.688,154.993 155.355,155.66 153.5,155.5C 148.984,153.72 144.317,153.22 139.5,154C 132.786,161.365 126.786,160.865 121.5,152.5C 121.368,149.43 121.701,146.43 122.5,143.5C 122.414,142.504 122.748,141.671 123.5,141C 125.866,139.767 128.366,138.934 131,138.5C 135.615,140.174 139.949,142.174 144,144.5C 147.271,144.279 150.437,143.612 153.5,142.5C 155.514,142.437 157.181,143.103 158.5,144.5C 161.625,145.479 164.958,145.813 168.5,145.5C 168.666,138.492 168.5,131.492 168,124.5C 166.172,123.248 164.339,123.248 162.5,124.5C 159.282,125.188 156.116,126.188 153,127.5C 145.938,124.954 144.772,120.787 149.5,115C 152.278,113.089 154.944,113.255 157.5,115.5C 158.694,116.777 160.36,117.444 162.5,117.5C 164.429,117.46 166.262,117.127 168,116.5C 168.5,109.508 168.666,102.508 168.5,95.5C 164.958,95.1872 161.625,95.5206 158.5,96.5C 155.127,100.469 151.794,100.469 148.5,96.5C 144.03,95.5139 139.363,95.1805 134.5,95.5C 134.216,97.4147 134.549,99.0813 135.5,100.5C 135.833,100.5 136.167,100.5 136.5,100.5C 136.833,101.167 137.167,101.833 137.5,102.5C 139.092,105.966 139.758,109.633 139.5,113.5C 136.936,119.064 132.603,120.898 126.5,119C 120.975,116.081 119.142,111.581 121,105.5C 121.973,103.36 123.473,101.693 125.5,100.5C 126.327,96.5408 126.827,92.5408 127,88.5C 135.722,88.0366 144.389,87.0366 153,85.5C 154.876,85.5247 156.376,86.1914 157.5,87.5C 158.964,88.1599 160.631,88.4932 162.5,88.5C 164.64,88.4439 166.306,87.7773 167.5,86.5C 166.167,83.5 166.167,80.5 167.5,77.5C 171.833,77.5 176.167,77.5 180.5,77.5C 181.089,73.0293 180.423,69.0293 178.5,65.5C 175.914,62.5448 176.081,59.5448 179,56.5C 179.667,53.5 179.667,50.5 179,47.5C 172.371,42.1156 171.871,36.2823 177.5,30C 185.987,25.9983 191.654,28.4983 194.5,37.5C 194.028,42.2878 191.694,45.7878 187.5,48C 188.103,52.6202 189.103,57.1202 190.5,61.5C 190.563,63.5139 189.897,65.1806 188.5,66.5 Z M 182.5,36.5 C 184.983,36.73 185.483,37.3966 184,38.5C 182.97,38.1639 182.47,37.4972 182.5,36.5 Z M 269.5,59.5 C 270.935,60.9848 270.768,62.3181 269,63.5C 267.961,62.7562 267.461,61.7562 267.5,60.5C 267.842,59.6618 268.508,59.3284 269.5,59.5 Z M 189.5,84.5 C 206.833,84.5 224.167,84.5 241.5,84.5C 242.919,85.4511 244.585,85.7845 246.5,85.5C 246.5,107.833 246.5,130.167 246.5,152.5C 246.5,152.833 246.5,153.167 246.5,153.5C 245.711,153.783 245.044,154.283 244.5,155C 221.427,155.822 198.427,155.655 175.5,154.5C 176.706,131.052 176.706,108.052 175.5,85.5C 180.363,85.8195 185.03,85.4861 189.5,84.5 Z M 132.5,110.5 C 131.041,110.567 129.708,110.234 128.5,109.5C 130.423,106.782 131.756,107.116 132.5,110.5 Z M 219.5,110.5 C 220.458,116.744 220.791,123.077 220.5,129.5C 214.167,129.5 207.833,129.5 201.5,129.5C 201.334,123.491 201.501,117.491 202,111.5C 207.741,110.525 213.575,110.192 219.5,110.5 Z M 129.5,146.5 C 132.861,147.203 133.194,148.537 130.5,150.5C 128.3,149.675 127.966,148.342 129.5,146.5 Z M 151.5,176.5 C 152.5,176.5 153.5,176.5 154.5,176.5C 154.5,177.5 154.5,178.5 154.5,179.5C 154.5,178.5 154.5,177.5 154.5,176.5C 153.5,176.5 152.5,176.5 151.5,176.5 Z M 267.5,176.5 C 268.5,176.5 269.5,176.5 270.5,176.5C 270.5,177.5 270.5,178.5 270.5,179.5C 269.5,179.5 268.5,179.5 267.5,179.5C 267.5,178.5 267.5,177.5 267.5,176.5 Z"/></g>
<g><path style="opacity:0.061" fill="#d0eae9" d="M 182.5,36.5 C 185.828,35.1495 187.161,36.4828 186.5,40.5C 182.483,41.1614 181.149,39.8281 182.5,36.5 Z M 182.5,36.5 C 182.47,37.4972 182.97,38.1639 184,38.5C 185.483,37.3966 184.983,36.73 182.5,36.5 Z"/></g>
<g><path style="opacity:0.249" fill="#b0e7e6" d="M 261.5,55.5 C 261.586,56.4959 261.252,57.3292 260.5,58C 257.833,58.1667 255.167,58.3333 252.5,58.5C 249.41,58.4783 246.743,57.8117 244.5,56.5C 250.363,58.1041 256.03,57.7708 261.5,55.5 Z"/></g>
<g><path style="opacity:0.052" fill="#daebea" d="M 235.5,57.5 C 234.85,59.4352 234.517,61.4352 234.5,63.5C 233.861,62.9032 233.528,62.0698 233.5,61C 233.387,59.3009 234.053,58.1342 235.5,57.5 Z"/></g>
<g><path style="opacity:0.569" fill="#bbe8e6" d="M 269.5,59.5 C 271.344,60.2039 271.844,61.5372 271,63.5C 269.644,64.3802 268.144,64.7135 266.5,64.5C 266.232,62.901 266.566,61.5676 267.5,60.5C 267.461,61.7562 267.961,62.7562 269,63.5C 270.768,62.3181 270.935,60.9848 269.5,59.5 Z"/></g>
<g><path style="opacity:0.012" fill="#e7ecec" d="M 246.5,65.5 C 245.912,68.6104 245.245,71.6104 244.5,74.5C 243.945,70.9878 244.612,67.9878 246.5,65.5 Z"/></g>
<g><path style="opacity:0.14" fill="#c4e9e8" d="M 178.5,65.5 C 180.423,69.0293 181.089,73.0293 180.5,77.5C 176.167,77.5 171.833,77.5 167.5,77.5C 171.298,76.5166 175.298,76.1832 179.5,76.5C 179.756,72.7307 179.423,69.0641 178.5,65.5 Z"/></g>
<g><path style="opacity:0.155" fill="#dbebeb" d="M 188.5,66.5 C 188.5,69.8333 188.5,73.1667 188.5,76.5C 194.833,76.5 201.167,76.5 207.5,76.5C 207.5,73.1667 207.5,69.8333 207.5,66.5C 208.482,69.9619 208.815,73.6286 208.5,77.5C 201.5,77.5 194.5,77.5 187.5,77.5C 187.185,73.6286 187.518,69.9619 188.5,66.5 Z"/></g>
<g><path style="opacity:0.152" fill="#d0eaea" d="M 216.5,66.5 C 216.5,69.8333 216.5,73.1667 216.5,76.5C 223.255,76.7934 229.922,76.4601 236.5,75.5C 229.913,77.4612 222.913,78.1279 215.5,77.5C 215.185,73.6286 215.518,69.9619 216.5,66.5 Z"/></g>
<g><path style="opacity:0.156" fill="#d2eaea" d="M 244.5,75.5 C 247.941,76.0965 251.275,76.7632 254.5,77.5C 250.671,78.069 247.337,77.4023 244.5,75.5 Z"/></g>
<g><path style="opacity:0.052" fill="#eaecec" d="M 254.5,77.5 C 255.479,80.6248 255.813,83.9581 255.5,87.5C 258.833,87.5 262.167,87.5 265.5,87.5C 262.038,88.4816 258.371,88.815 254.5,88.5C 254.5,84.8333 254.5,81.1667 254.5,77.5 Z"/></g>
<g><path style="opacity:0.661" fill="#92e4e2" d="M 189.5,84.5 C 185.03,85.4861 180.363,85.8195 175.5,85.5C 176.706,108.052 176.706,131.052 175.5,154.5C 175.5,154.833 175.5,155.167 175.5,155.5C 174.502,132.006 174.169,108.339 174.5,84.5C 179.5,84.5 184.5,84.5 189.5,84.5 Z"/></g>
<g><path style="opacity:0.139" fill="#d1eaea" d="M 241.5,84.5 C 243.5,84.5 245.5,84.5 247.5,84.5C 247.831,107.339 247.497,130.006 246.5,152.5C 246.5,130.167 246.5,107.833 246.5,85.5C 244.585,85.7845 242.919,85.4511 241.5,84.5 Z"/></g>
<g><path style="opacity:0.037" fill="#ececec" d="M 167.5,86.5 C 166.306,87.7773 164.64,88.4439 162.5,88.5C 160.631,88.4932 158.964,88.1599 157.5,87.5C 160.939,87.7471 164.272,87.4137 167.5,86.5 Z"/></g>
<g><path style="opacity:0.251" fill="#c1e8e7" d="M 148.5,96.5 C 144.154,96.3343 139.821,96.501 135.5,97C 136.252,97.6708 136.586,98.5041 136.5,99.5C 135.833,99.5 135.5,99.8333 135.5,100.5C 134.549,99.0813 134.216,97.4147 134.5,95.5C 139.363,95.1805 144.03,95.5139 148.5,96.5 Z"/></g>
<g><path style="opacity:0.408" fill="#9ee6e4" d="M 158.5,96.5 C 161.625,95.5206 164.958,95.1872 168.5,95.5C 168.666,102.508 168.5,109.508 168,116.5C 166.262,117.127 164.429,117.46 162.5,117.5C 160.36,117.444 158.694,116.777 157.5,115.5C 160.668,116.792 163.835,116.792 167,115.5C 167.5,109.175 167.666,102.842 167.5,96.5C 164.5,96.5 161.5,96.5 158.5,96.5 Z"/></g>
<g><path style="opacity:0.064" fill="#dfebeb" d="M 264.5,96.5 C 261.5,96.5 258.5,96.5 255.5,96.5C 255.5,103.167 255.5,109.833 255.5,116.5C 254.509,109.687 254.175,102.687 254.5,95.5C 258.042,95.1872 261.375,95.5206 264.5,96.5 Z"/></g>
<g><path style="opacity:0.008" fill="#eaebea" d="M 136.5,99.5 C 137.833,100.167 137.833,100.167 136.5,99.5 Z"/></g>
<g><path style="opacity:0.008" fill="#ebeceb" d="M 139.5,102.5 C 140.833,103.167 140.833,103.167 139.5,102.5 Z"/></g>
<g><path style="opacity:1" fill="#54dcd9" d="M 194.5,102.5 C 206.081,102.179 217.581,102.512 229,103.5C 229.82,115.076 229.654,126.576 228.5,138C 216.924,138.82 205.424,138.654 194,137.5C 193.189,125.757 193.356,114.091 194.5,102.5 Z M 219.5,110.5 C 220.458,116.744 220.791,123.077 220.5,129.5C 214.167,129.5 207.833,129.5 201.5,129.5C 201.334,123.491 201.501,117.491 202,111.5C 207.741,110.525 213.575,110.192 219.5,110.5 Z"/></g>
<g><path style="opacity:0.831" fill="#9ce4e2" d="M 137.5,102.5 C 138.167,102.833 138.833,103.167 139.5,103.5C 140.014,105.366 140.68,107.2 141.5,109C 141.101,110.728 140.434,112.228 139.5,113.5C 139.758,109.633 139.092,105.966 137.5,102.5 Z"/></g>
<g><path style="opacity:0.064" fill="#ebebeb" d="M 128.5,109.5 C 129.708,110.234 131.041,110.567 132.5,110.5C 132.083,111.124 131.416,111.457 130.5,111.5C 129.287,111.253 128.62,110.586 128.5,109.5 Z"/></g>
<g><path style="opacity:0.038" fill="#ececec" d="M 219.5,110.5 C 221.459,116.75 222.126,123.416 221.5,130.5C 214.646,130.824 207.979,130.491 201.5,129.5C 207.833,129.5 214.167,129.5 220.5,129.5C 220.791,123.077 220.458,116.744 219.5,110.5 Z"/></g>
<g><path style="opacity:1" fill="#51dcd9" d="M 288.5,109.5 C 297.576,111.319 300.743,116.652 298,125.5C 294.1,130.533 289.267,131.7 283.5,129C 276.42,123.146 276.753,117.146 284.5,111C 286.058,110.79 287.391,110.29 288.5,109.5 Z M 289.5,118.5 C 290.11,119.391 290.443,120.391 290.5,121.5C 286.995,121.306 286.662,120.306 289.5,118.5 Z"/></g>
<g><path style="opacity:0.033" fill="#e3eceb" d="M 274.5,116.5 C 277.927,118.53 278.26,120.864 275.5,123.5C 275.552,121.097 275.219,118.764 274.5,116.5 Z"/></g>
<g><path style="opacity:0.059" fill="#dbebeb" d="M 289.5,118.5 C 291.552,119.053 291.885,120.053 290.5,121.5C 290.443,120.391 290.11,119.391 289.5,118.5 Z"/></g>
<g><path style="opacity:0.403" fill="#ace7e5" d="M 158.5,144.5 C 161.448,144.777 164.281,144.444 167,143.5C 167.667,137.5 167.667,131.5 167,125.5C 165.397,125.129 163.897,124.795 162.5,124.5C 164.339,123.248 166.172,123.248 168,124.5C 168.5,131.492 168.666,138.492 168.5,145.5C 164.958,145.813 161.625,145.479 158.5,144.5 Z"/></g>
<g><path style="opacity:0.063" fill="#ececec" d="M 255.5,124.5 C 255.334,130.842 255.5,137.175 256,143.5C 258.719,144.444 261.552,144.777 264.5,144.5C 261.375,145.479 258.042,145.813 254.5,145.5C 254.175,138.313 254.509,131.313 255.5,124.5 Z"/></g>
<g><path style="opacity:0.706" fill="#b6e7e6" d="M 122.5,143.5 C 121.701,146.43 121.368,149.43 121.5,152.5C 120.366,150.034 120.199,147.367 121,144.5C 121.383,143.944 121.883,143.611 122.5,143.5 Z"/></g>
<g><path style="opacity:0.425" fill="#b8e7e6" d="M 157.5,153.5 C 160.962,152.518 164.629,152.185 168.5,152.5C 168.5,156.167 168.5,159.833 168.5,163.5C 167.733,162.828 167.066,161.995 166.5,161C 167.435,158.619 167.768,156.119 167.5,153.5C 164.167,153.5 160.833,153.5 157.5,153.5 Z"/></g>
<g><path style="opacity:0.056" fill="#eaecec" d="M 264.5,153.5 C 260.821,153.06 257.488,153.727 254.5,155.5C 254.5,154.5 254.5,153.5 254.5,152.5C 258.042,152.187 261.375,152.521 264.5,153.5 Z"/></g>
<g><path style="opacity:0.436" fill="#9ce5e4" d="M 273.5,153.5 C 273.334,158.511 273.501,163.511 274,168.5C 274.717,169.044 275.217,169.711 275.5,170.5C 274.504,170.586 273.671,170.252 273,169.5C 272.183,163.984 272.349,158.65 273.5,153.5 Z"/></g>
<g><path style="opacity:0.254" fill="#b3e7e6" d="M 246.5,153.5 C 246.586,154.496 246.252,155.329 245.5,156C 221.996,156.83 198.663,156.663 175.5,155.5C 175.5,155.167 175.5,154.833 175.5,154.5C 198.427,155.655 221.427,155.822 244.5,155C 245.044,154.283 245.711,153.783 246.5,153.5 Z"/></g>
<g><path style="opacity:0.035" fill="#eaecec" d="M 168.5,163.5 C 172.5,163.5 176.5,163.5 180.5,163.5C 181.08,167.649 180.414,171.316 178.5,174.5C 179.414,171.272 179.747,167.939 179.5,164.5C 175.629,164.815 171.962,164.482 168.5,163.5 Z"/></g>
<g><path style="opacity:0.049" fill="#ececec" d="M 208.5,165.5 C 202.248,164.376 195.915,164.21 189.5,165C 188.549,168.057 188.216,171.223 188.5,174.5C 187.518,171.038 187.185,167.371 187.5,163.5C 194.913,162.872 201.913,163.539 208.5,165.5 Z"/></g>
<g><path style="opacity:0.043" fill="#deebeb" d="M 236.5,164.5 C 229.833,164.5 223.167,164.5 216.5,164.5C 216.5,167.833 216.5,171.167 216.5,174.5C 215.518,171.038 215.185,167.371 215.5,163.5C 222.687,163.175 229.687,163.509 236.5,164.5 Z"/></g>
<g><path style="opacity:0.019" fill="#e8ebeb" d="M 161.5,172.5 C 166.935,173.123 172.268,173.79 177.5,174.5C 171.729,175.113 166.396,174.446 161.5,172.5 Z"/></g>
<g><path style="opacity:0.046" fill="#e4ebeb" d="M 151.5,176.5 C 152.568,175.566 153.901,175.232 155.5,175.5C 155.768,177.099 155.434,178.432 154.5,179.5C 154.5,178.5 154.5,177.5 154.5,176.5C 153.5,176.5 152.5,176.5 151.5,176.5 Z"/></g>
<g><path style="opacity:0.716" fill="#b4e7e5" d="M 144.5,173.5 C 144.552,175.903 144.219,178.236 143.5,180.5C 142.355,178.047 142.688,175.713 144.5,173.5 Z"/></g>
<g><path style="opacity:1" fill="#393d46" d="M 149.5,206.5 C 150.234,207.708 150.567,209.041 150.5,210.5C 150.251,212.936 149.251,214.936 147.5,216.5C 142.689,214.515 137.689,214.015 132.5,215C 131.065,217.267 131.398,219.267 133.5,221C 140.476,223.202 146.643,226.702 152,231.5C 156.891,246.997 151.058,254.664 134.5,254.5C 129.448,254.733 124.782,253.733 120.5,251.5C 119.89,250.609 119.557,249.609 119.5,248.5C 119.544,245.684 120.544,243.351 122.5,241.5C 128.683,244.181 134.85,244.514 141,242.5C 141.743,240.559 141.576,238.726 140.5,237C 134.711,234.81 129.378,231.977 124.5,228.5C 124.167,227.5 123.5,226.833 122.5,226.5C 121.21,225.942 120.377,224.942 120,223.5C 119.245,219.745 119.411,216.078 120.5,212.5C 122.833,210.833 124.833,208.833 126.5,206.5C 134.151,202.564 141.818,202.564 149.5,206.5 Z"/></g>
<g><path style="opacity:0.123" fill="#cfcfd0" d="M 188.5,205.5 C 192.683,204.189 197.016,204.189 201.5,205.5C 201.376,206.107 201.043,206.44 200.5,206.5C 196.702,205.517 192.702,205.183 188.5,205.5 Z"/></g>
<g><path style="opacity:0.121" fill="#cccccd" d="M 260.5,205.5 C 247.5,205.5 234.5,205.5 221.5,205.5C 221.5,208.5 221.5,211.5 221.5,214.5C 220.521,211.375 220.187,208.042 220.5,204.5C 234.01,204.171 247.344,204.504 260.5,205.5 Z"/></g>
<g><path style="opacity:1" fill="#333841" d="M 108.5,232.5 C 108.12,234.698 108.787,236.365 110.5,237.5C 111.404,238.209 111.737,239.209 111.5,240.5C 111.12,242.698 111.787,244.365 113.5,245.5C 113.5,245.833 113.5,246.167 113.5,246.5C 113.357,248.262 113.691,249.929 114.5,251.5C 110.893,252.489 107.226,252.823 103.5,252.5C 102.516,249.949 101.516,247.282 100.5,244.5C 94.5,243.167 88.5,243.167 82.5,244.5C 81.3385,246.885 80.3385,249.219 79.5,251.5C 75.877,252.758 72.2103,252.758 68.5,251.5C 69.3094,249.929 69.6427,248.262 69.5,246.5C 73.9193,232.161 79.586,218.327 86.5,205C 89.8333,204.333 93.1667,204.333 96.5,205C 101.563,213.685 105.563,222.851 108.5,232.5 Z M 90.5,218.5 C 91.1667,218.833 91.8333,219.167 92.5,219.5C 92.5,219.833 92.5,220.167 92.5,220.5C 92.6596,222.153 93.3263,223.486 94.5,224.5C 95.2163,227.598 96.2163,230.598 97.5,233.5C 93.2984,233.817 89.2984,233.483 85.5,232.5C 87.687,228.105 89.3537,223.438 90.5,218.5 Z"/></g>
<g><path style="opacity:0.763" fill="#73767c" d="M 172.5,205.5 C 169.167,205.5 165.833,205.5 162.5,205.5C 162.5,221.167 162.5,236.833 162.5,252.5C 165.833,252.5 169.167,252.5 172.5,252.5C 169.305,253.236 165.971,253.903 162.5,254.5C 161.779,252.314 161.113,250.147 160.5,248C 161.298,233.9 161.632,219.4 161.5,204.5C 165.371,204.185 169.038,204.518 172.5,205.5 Z"/></g>
<g><path style="opacity:0.999" fill="#2b2f39" d="M 172.5,205.5 C 172.334,211.176 172.501,216.843 173,222.5C 173.717,221.956 174.217,221.289 174.5,220.5C 176.5,217.833 178.833,215.5 181.5,213.5C 183.914,212.089 185.581,210.089 186.5,207.5C 186.833,206.5 187.5,205.833 188.5,205.5C 192.702,205.183 196.702,205.517 200.5,206.5C 195.582,214.087 189.582,220.754 182.5,226.5C 181.668,228.725 182.668,230.058 185.5,230.5C 186.5,230.833 187.167,231.5 187.5,232.5C 188.419,235.089 190.086,237.089 192.5,238.5C 192.738,240.404 193.738,241.738 195.5,242.5C 195.738,244.404 196.738,245.738 198.5,246.5C 199.338,246.842 199.672,247.508 199.5,248.5C 199.511,250.017 200.177,251.184 201.5,252C 197.514,252.499 193.514,252.666 189.5,252.5C 186.484,249.48 183.817,246.146 181.5,242.5C 180.581,239.911 178.914,237.911 176.5,236.5C 175.833,236.5 175.5,236.167 175.5,235.5C 174.828,234.733 173.995,234.066 173,233.5C 172.5,239.825 172.334,246.158 172.5,252.5C 169.167,252.5 165.833,252.5 162.5,252.5C 162.5,236.833 162.5,221.167 162.5,205.5C 165.833,205.5 169.167,205.5 172.5,205.5 Z"/></g>
<g><path style="opacity:0.014" fill="#e9e9e9" d="M 172.5,205.5 C 173.167,210.5 173.833,215.5 174.5,220.5C 174.217,221.289 173.717,221.956 173,222.5C 172.501,216.843 172.334,211.176 172.5,205.5 Z"/></g>
<g><path style="opacity:0.998" fill="#2b303a" d="M 260.5,205.5 C 260.751,208.71 260.751,211.71 260.5,214.5C 255.5,214.5 250.5,214.5 245.5,214.5C 245.5,227.167 245.5,239.833 245.5,252.5C 242.167,252.5 238.833,252.5 235.5,252.5C 234.367,240.789 234.367,229.122 235.5,217.5C 235.5,216.5 235.5,215.5 235.5,214.5C 230.833,214.5 226.167,214.5 221.5,214.5C 221.5,211.5 221.5,208.5 221.5,205.5C 234.5,205.5 247.5,205.5 260.5,205.5 Z"/></g>
<g><path style="opacity:1" fill="#252a34" d="M 267.5,205.5 C 270.833,205.5 274.167,205.5 277.5,205.5C 277.177,211.69 277.51,217.69 278.5,223.5C 284.5,223.5 290.5,223.5 296.5,223.5C 296.5,217.5 296.5,211.5 296.5,205.5C 299.833,205.5 303.167,205.5 306.5,205.5C 306.5,221.167 306.5,236.833 306.5,252.5C 303.167,252.5 299.833,252.5 296.5,252.5C 296.5,245.833 296.5,239.167 296.5,232.5C 290.5,232.5 284.5,232.5 278.5,232.5C 277.509,238.979 277.176,245.646 277.5,252.5C 274.167,252.5 270.833,252.5 267.5,252.5C 267.5,236.833 267.5,221.167 267.5,205.5 Z"/></g>
<g><path style="opacity:0.629" fill="#8a8d91" d="M 267.5,205.5 C 270.962,204.518 274.629,204.185 278.5,204.5C 278.5,210.5 278.5,216.5 278.5,222.5C 278.5,222.833 278.5,223.167 278.5,223.5C 277.51,217.69 277.177,211.69 277.5,205.5C 274.167,205.5 270.833,205.5 267.5,205.5 Z"/></g>
<g><path style="opacity:0.374" fill="#bfc0c3" d="M 306.5,205.5 C 303.167,205.5 299.833,205.5 296.5,205.5C 296.5,211.5 296.5,217.5 296.5,223.5C 290.5,223.5 284.5,223.5 278.5,223.5C 278.5,223.167 278.5,222.833 278.5,222.5C 284.167,222.5 289.833,222.5 295.5,222.5C 295.5,216.5 295.5,210.5 295.5,204.5C 299.371,204.185 303.038,204.518 306.5,205.5 Z"/></g>
<g><path style="opacity:0.999" fill="#2a2f39" d="M 349.5,205.5 C 350.477,208.287 350.81,211.287 350.5,214.5C 343.351,215.025 336.518,215.025 330,214.5C 329.5,215 329,215.5 328.5,216C 328.986,218.027 328.986,220.193 328.5,222.5C 334.412,224.456 340.745,225.123 347.5,224.5C 347.635,227.17 347.635,230.003 347.5,233C 341.584,233.807 335.75,233.641 330,232.5C 329.283,233.044 328.783,233.711 328.5,234.5C 328.5,237.833 328.5,241.167 328.5,244.5C 336.167,244.5 343.833,244.5 351.5,244.5C 351.5,247.167 351.5,249.833 351.5,252.5C 340.5,252.5 329.5,252.5 318.5,252.5C 318.5,236.833 318.5,221.167 318.5,205.5C 328.833,205.5 339.167,205.5 349.5,205.5 Z"/></g>
<g><path style="opacity:0.129" fill="#b4b6b8" d="M 149.5,206.5 C 150.586,206.62 151.253,207.287 151.5,208.5C 151.457,209.416 151.124,210.083 150.5,210.5C 150.567,209.041 150.234,207.708 149.5,206.5 Z"/></g>
<g><path style="opacity:0.757" fill="#95979c" d="M 126.5,206.5 C 124.833,208.833 122.833,210.833 120.5,212.5C 121.5,209.5 123.5,207.5 126.5,206.5 Z"/></g>
<g><path style="opacity:0.761" fill="#86888d" d="M 186.5,207.5 C 185.581,210.089 183.914,212.089 181.5,213.5C 182.419,210.911 184.086,208.911 186.5,207.5 Z"/></g>
<g><path style="opacity:0.01" fill="#ecedec" d="M 221.5,214.5 C 226.167,214.5 230.833,214.5 235.5,214.5C 235.5,215.5 235.5,216.5 235.5,217.5C 230.946,215.953 226.279,214.953 221.5,214.5 Z"/></g>
<g><path style="opacity:0.627" fill="#87898e" d="M 260.5,214.5 C 256.03,215.486 251.363,215.819 246.5,215.5C 246.5,228.167 246.5,240.833 246.5,253.5C 242.894,253.211 239.394,253.544 236,254.5C 235.536,253.906 235.369,253.239 235.5,252.5C 238.833,252.5 242.167,252.5 245.5,252.5C 245.5,239.833 245.5,227.167 245.5,214.5C 250.5,214.5 255.5,214.5 260.5,214.5 Z"/></g>
<g><path style="opacity:0.369" fill="#b9babd" d="M 90.5,218.5 C 91.6226,217.243 92.2893,217.576 92.5,219.5C 91.8333,219.167 91.1667,218.833 90.5,218.5 Z"/></g>
<g><path style="opacity:0.506" fill="#9ea0a4" d="M 92.5,220.5 C 94.1042,221.287 94.7709,222.62 94.5,224.5C 93.3263,223.486 92.6596,222.153 92.5,220.5 Z"/></g>
<g><path style="opacity:0.759" fill="#63666d" d="M 328.5,222.5 C 334.667,223.814 340.834,223.814 347,222.5C 347.464,223.094 347.631,223.761 347.5,224.5C 340.745,225.123 334.412,224.456 328.5,222.5 Z"/></g>
<g><path style="opacity:0.004" fill="#b8babc" d="M 122.5,226.5 C 123.5,226.833 124.167,227.5 124.5,228.5C 123.167,228.5 122.5,227.833 122.5,226.5 Z"/></g>
<g><path style="opacity:0.502" fill="#acaeb1" d="M 182.5,226.5 C 183.5,227.833 184.5,229.167 185.5,230.5C 182.668,230.058 181.668,228.725 182.5,226.5 Z"/></g>
<g><path style="opacity:0.258" fill="#b6b8ba" d="M 85.5,232.5 C 89.2984,233.483 93.2984,233.817 97.5,233.5C 93.3171,234.811 88.9838,234.811 84.5,233.5C 84.6236,232.893 84.9569,232.56 85.5,232.5 Z"/></g>
<g><path style="opacity:0.851" fill="#a2a4a8" d="M 187.5,232.5 C 189.914,233.911 191.581,235.911 192.5,238.5C 190.086,237.089 188.419,235.089 187.5,232.5 Z"/></g>
<g><path style="opacity:0.63" fill="#94969a" d="M 267.5,205.5 C 267.5,221.167 267.5,236.833 267.5,252.5C 270.833,252.5 274.167,252.5 277.5,252.5C 277.176,245.646 277.509,238.979 278.5,232.5C 278.5,232.833 278.5,233.167 278.5,233.5C 278.5,240.167 278.5,246.833 278.5,253.5C 274.5,253.5 270.5,253.5 266.5,253.5C 266.17,237.325 266.504,221.325 267.5,205.5 Z"/></g>
<g><path style="opacity:0.379" fill="#a3a5a9" d="M 306.5,205.5 C 307.496,221.325 307.83,237.325 307.5,253.5C 303.5,253.5 299.5,253.5 295.5,253.5C 295.5,246.833 295.5,240.167 295.5,233.5C 289.833,233.5 284.167,233.5 278.5,233.5C 278.5,233.167 278.5,232.833 278.5,232.5C 284.5,232.5 290.5,232.5 296.5,232.5C 296.5,239.167 296.5,245.833 296.5,252.5C 299.833,252.5 303.167,252.5 306.5,252.5C 306.5,236.833 306.5,221.167 306.5,205.5 Z"/></g>
<g><path style="opacity:0.018" fill="#e2e3e3" d="M 175.5,235.5 C 173.854,240.927 172.854,246.594 172.5,252.5C 172.334,246.158 172.5,239.825 173,233.5C 173.995,234.066 174.828,234.733 175.5,235.5 Z"/></g>
<g><path style="opacity:0.875" fill="#898c91" d="M 108.5,232.5 C 109.537,233.93 110.204,235.597 110.5,237.5C 108.787,236.365 108.12,234.698 108.5,232.5 Z"/></g>
<g><path style="opacity:0.004" fill="#b6b7ba" d="M 176.5,236.5 C 178.914,237.911 180.581,239.911 181.5,242.5C 179.086,241.089 177.419,239.089 176.5,236.5 Z"/></g>
<g><path style="opacity:0.631" fill="#94969a" d="M 192.5,238.5 C 194.262,239.262 195.262,240.596 195.5,242.5C 193.738,241.738 192.738,240.404 192.5,238.5 Z"/></g>
<g><path style="opacity:0.878" fill="#898c90" d="M 111.5,240.5 C 112.537,241.93 113.204,243.597 113.5,245.5C 111.787,244.365 111.12,242.698 111.5,240.5 Z"/></g>
<g><path style="opacity:0.512" fill="#9da0a4" d="M 328.5,234.5 C 329.477,237.287 329.81,240.287 329.5,243.5C 337.019,243.175 344.352,243.508 351.5,244.5C 343.833,244.5 336.167,244.5 328.5,244.5C 328.5,241.167 328.5,237.833 328.5,234.5 Z"/></g>
<g><path style="opacity:0.627" fill="#94969a" d="M 195.5,242.5 C 197.262,243.262 198.262,244.596 198.5,246.5C 196.738,245.738 195.738,244.404 195.5,242.5 Z"/></g>
<g><path style="opacity:0.494" fill="#aaabaf" d="M 119.5,248.5 C 119.557,249.609 119.89,250.609 120.5,251.5C 118.448,250.947 118.115,249.947 119.5,248.5 Z"/></g>
<g><path style="opacity:0.63" fill="#83868b" d="M 69.5,246.5 C 69.6427,248.262 69.3094,249.929 68.5,251.5C 72.2103,252.758 75.877,252.758 79.5,251.5C 76.0476,253.173 72.2143,254.173 68,254.5C 67.2971,251.518 67.7971,248.851 69.5,246.5 Z"/></g>
<g><path style="opacity:0.626" fill="#7d7f85" d="M 113.5,246.5 C 114.578,248.539 115.578,250.706 116.5,253C 111.98,253.814 107.646,253.647 103.5,252.5C 107.226,252.823 110.893,252.489 114.5,251.5C 113.691,249.929 113.357,248.262 113.5,246.5 Z"/></g>
<g><path style="opacity:0.627" fill="#797c82" d="M 199.5,248.5 C 201.727,249.401 202.727,251.067 202.5,253.5C 197.968,253.818 193.634,253.485 189.5,252.5C 193.514,252.666 197.514,252.499 201.5,252C 200.177,251.184 199.511,250.017 199.5,248.5 Z"/></g>
<g><path style="opacity:0.629" fill="#7e8085" d="M 349.5,205.5 C 339.167,205.5 328.833,205.5 318.5,205.5C 318.5,221.167 318.5,236.833 318.5,252.5C 329.5,252.5 340.5,252.5 351.5,252.5C 340.346,253.495 329.012,253.828 317.5,253.5C 317.5,237.167 317.5,220.833 317.5,204.5C 328.346,204.172 339.013,204.506 349.5,205.5 Z"/></g>
<g><path style="opacity:1" fill="#3a3e47" d="M 91.5,264.5 C 91.8212,266.048 92.8212,266.715 94.5,266.5C 96.2624,267.262 97.2624,268.596 97.5,270.5C 97.427,272.027 98.0937,273.027 99.5,273.5C 103.954,288.044 98.9536,297.211 84.5,301C 78.482,301.988 72.6486,301.488 67,299.5C 66.4953,287.068 66.4953,275.068 67,263.5C 75.3141,260.616 83.4808,260.949 91.5,264.5 Z M 83.5,270.5 C 86.3063,271.321 88.4729,272.988 90,275.5C 90.7062,279.887 90.5396,284.22 89.5,288.5C 88.1667,289.167 87.1667,290.167 86.5,291.5C 83.2356,292.324 79.9023,292.658 76.5,292.5C 76.5,285.167 76.5,277.833 76.5,270.5C 78.8333,270.5 81.1667,270.5 83.5,270.5 Z"/></g>
<g><path style="opacity:0.639" fill="#919498" d="M 127.5,264.5 C 124.167,263.167 120.833,263.167 117.5,264.5C 118.841,262.88 120.674,261.88 123,261.5C 124.008,261.982 125.175,262.148 126.5,262C 127.252,262.671 127.586,263.504 127.5,264.5 Z"/></g>
<g><path style="opacity:0.636" fill="#8c8e93" d="M 162.5,300.5 C 162.5,290.167 162.5,279.833 162.5,269.5C 166.167,269.5 169.833,269.5 173.5,269.5C 173.5,267.5 173.5,265.5 173.5,263.5C 163.5,263.5 153.5,263.5 143.5,263.5C 143.5,265.5 143.5,267.5 143.5,269.5C 147.371,269.185 151.038,269.518 154.5,270.5C 153.5,270.5 152.5,270.5 151.5,270.5C 148.5,270.5 145.5,270.5 142.5,270.5C 142.5,267.833 142.5,265.167 142.5,262.5C 152.522,262.166 162.688,261.833 173,261.5C 174.392,264.278 174.892,267.278 174.5,270.5C 170.833,270.5 167.167,270.5 163.5,270.5C 163.827,280.681 163.494,290.681 162.5,300.5 Z"/></g>
<g><path style="opacity:0.64" fill="#8d8f94" d="M 199.5,264.5 C 195.177,262.655 191.51,263.322 188.5,266.5C 188.284,264.319 189.117,262.653 191,261.5C 194.254,261.838 197.088,262.838 199.5,264.5 Z"/></g>
<g><path style="opacity:1" fill="#333841" d="M 232.5,262.5 C 234.265,263.461 236.265,263.795 238.5,263.5C 245.089,265.333 247.589,269.667 246,276.5C 245.623,277.942 244.79,278.942 243.5,279.5C 242.611,281.025 243.278,282.025 245.5,282.5C 246.906,282.973 247.573,283.973 247.5,285.5C 247.5,287.833 247.5,290.167 247.5,292.5C 246.761,296.408 244.428,298.908 240.5,300C 233.532,301.784 226.532,301.95 219.5,300.5C 218.521,288.247 218.187,275.913 218.5,263.5C 221.983,262.598 225.65,261.932 229.5,261.5C 230.726,261.52 231.726,261.853 232.5,262.5 Z M 231.5,269.5 C 231.5,269.833 231.5,270.167 231.5,270.5C 233.858,270.253 235.858,270.919 237.5,272.5C 237.489,274.017 236.823,275.184 235.5,276C 232.5,276.667 229.5,276.667 226.5,276C 226.366,273.961 226.866,271.794 228,269.5C 228.333,270.5 228.667,271.5 229,272.5C 229.236,270.881 230.069,269.881 231.5,269.5 Z M 227.5,284.5 C 230.941,284.301 234.274,284.801 237.5,286C 238.406,287.699 238.739,289.533 238.5,291.5C 234.985,292.919 231.319,293.586 227.5,293.5C 227.5,290.5 227.5,287.5 227.5,284.5 Z"/></g>
<g><path style="opacity:0.633" fill="#8a8c91" d="M 238.5,263.5 C 236.265,263.795 234.265,263.461 232.5,262.5C 234.556,261.839 236.556,262.172 238.5,263.5 Z"/></g>
<g><path style="opacity:0.638" fill="#8a8c91" d="M 274.5,263.5 C 271.5,263.5 268.5,263.5 265.5,263.5C 268.447,261.12 271.447,261.12 274.5,263.5 Z"/></g>
<g><path style="opacity:0.999" fill="#3a3f48" d="M 305.5,269.5 C 303.901,269.232 302.568,269.566 301.5,270.5C 301.286,272.144 301.62,273.644 302.5,275C 305.833,276.333 309.167,277.667 312.5,279C 318.388,283.184 320.221,288.684 318,295.5C 315.949,298.553 313.115,300.386 309.5,301C 303.65,302.012 297.984,301.512 292.5,299.5C 291.306,297.484 291.306,295.484 292.5,293.5C 293.708,292.766 295.041,292.433 296.5,292.5C 298.848,292.67 301.182,293.003 303.5,293.5C 306.073,293.547 308.073,292.547 309.5,290.5C 309.081,289.328 308.415,288.328 307.5,287.5C 302.724,285.635 298.224,283.302 294,280.5C 291.368,276.775 290.868,272.775 292.5,268.5C 294.5,267.167 296.167,265.5 297.5,263.5C 303.775,260.774 310.108,260.941 316.5,264C 316.833,264.333 317.167,264.667 317.5,265C 316.308,266.912 315.308,268.912 314.5,271C 311.512,270.838 308.512,270.338 305.5,269.5 Z"/></g>
<g><path style="opacity:0.999" fill="#383d46" d="M 127.5,264.5 C 129.403,267.979 131.07,271.646 132.5,275.5C 132.12,277.698 132.787,279.365 134.5,280.5C 136.208,283.95 137.541,287.617 138.5,291.5C 138.12,293.698 138.787,295.365 140.5,296.5C 140.539,297.583 140.873,298.583 141.5,299.5C 134.28,303.706 130.28,301.706 129.5,293.5C 128.791,292.596 127.791,292.263 126.5,292.5C 122.774,292.177 119.107,292.511 115.5,293.5C 114.593,296.057 113.593,298.557 112.5,301C 109.518,301.498 106.518,301.665 103.5,301.5C 106.609,288.498 111.275,276.165 117.5,264.5C 120.833,263.167 124.167,263.167 127.5,264.5 Z M 121.5,273.5 C 122.167,274.167 122.833,274.833 123.5,275.5C 124.108,278.327 125.108,280.993 126.5,283.5C 124.302,284.185 121.636,284.518 118.5,284.5C 118.5,283.5 118.5,282.5 118.5,281.5C 119.687,279.928 120.687,278.261 121.5,276.5C 121.5,275.5 121.5,274.5 121.5,273.5 Z"/></g>
<g><path style="opacity:1" fill="#282d36" d="M 162.5,300.5 C 160.031,301.357 157.365,301.357 154.5,300.5C 154.5,290.5 154.5,280.5 154.5,270.5C 151.038,269.518 147.371,269.185 143.5,269.5C 143.5,267.5 143.5,265.5 143.5,263.5C 153.5,263.5 163.5,263.5 173.5,263.5C 173.5,265.5 173.5,267.5 173.5,269.5C 169.833,269.5 166.167,269.5 162.5,269.5C 162.5,279.833 162.5,290.167 162.5,300.5 Z"/></g>
<g><path style="opacity:0.999" fill="#353943" d="M 199.5,264.5 C 205.73,276.184 210.397,288.518 213.5,301.5C 210.287,301.81 207.287,301.477 204.5,300.5C 204.037,297.779 203.371,295.112 202.5,292.5C 197.36,291.512 192.026,291.179 186.5,291.5C 186.5,292.5 186.5,293.5 186.5,294.5C 186.737,295.791 186.404,296.791 185.5,297.5C 184.121,298.609 182.455,299.276 180.5,299.5C 178.667,299.415 177.334,298.748 176.5,297.5C 179.703,286.777 183.703,276.443 188.5,266.5C 191.51,263.322 195.177,262.655 199.5,264.5 Z M 194.5,275.5 C 194.833,275.5 195.167,275.5 195.5,275.5C 196.501,278.172 197.501,280.838 198.5,283.5C 195.66,284.917 192.993,284.584 190.5,282.5C 191.738,280.786 192.405,278.786 192.5,276.5C 193.925,278.031 194.591,277.698 194.5,275.5 Z"/></g>
<g><path style="opacity:0.129" fill="#d1d1d2" d="M 218.5,263.5 C 218.187,275.913 218.521,288.247 219.5,300.5C 218.17,294.705 217.504,288.538 217.5,282C 217.5,275.657 217.834,269.491 218.5,263.5 Z"/></g>
<g><path style="opacity:1" fill="#353943" d="M 265.5,263.5 C 268.5,263.5 271.5,263.5 274.5,263.5C 278.467,270.726 281.467,278.392 283.5,286.5C 283.66,288.153 284.326,289.486 285.5,290.5C 287.115,293.623 288.115,296.956 288.5,300.5C 285.531,301.329 282.531,301.495 279.5,301C 278.331,298.993 277.665,296.827 277.5,294.5C 277.5,293.5 277.5,292.5 277.5,291.5C 272.489,291.334 267.489,291.501 262.5,292C 261.663,293.011 261.33,294.178 261.5,295.5C 261.528,297.582 260.861,299.416 259.5,301C 256.398,301.348 253.398,300.848 250.5,299.5C 254.67,286.575 259.67,274.575 265.5,263.5 Z M 271.5,276.5 C 271.878,278.921 272.545,281.254 273.5,283.5C 271.735,284.461 269.735,284.795 267.5,284.5C 267.5,283.5 267.5,282.5 267.5,281.5C 268.338,281.158 268.672,280.492 268.5,279.5C 269.728,278.694 270.728,277.694 271.5,276.5 Z"/></g>
<g><path style="opacity:0.506" fill="#82858a" d="M 333.5,270.5 C 338.64,269.512 343.974,269.179 349.5,269.5C 349.5,267.5 349.5,265.5 349.5,263.5C 341.5,263.5 333.5,263.5 325.5,263.5C 325.5,275.833 325.5,288.167 325.5,300.5C 324.505,288.011 324.171,275.344 324.5,262.5C 333.167,262.5 341.833,262.5 350.5,262.5C 350.5,265.167 350.5,267.833 350.5,270.5C 344.833,270.5 339.167,270.5 333.5,270.5 Z"/></g>
<g><path style="opacity:1" fill="#2e333d" d="M 333.5,270.5 C 333.5,272.5 333.5,274.5 333.5,276.5C 338.5,276.5 343.5,276.5 348.5,276.5C 348.5,278.833 348.5,281.167 348.5,283.5C 343.056,282.892 338.056,283.558 333.5,285.5C 333.5,287.833 333.5,290.167 333.5,292.5C 339.5,292.5 345.5,292.5 351.5,292.5C 351.5,295.167 351.5,297.833 351.5,300.5C 342.585,300.576 333.919,300.576 325.5,300.5C 325.5,288.167 325.5,275.833 325.5,263.5C 333.5,263.5 341.5,263.5 349.5,263.5C 349.5,265.5 349.5,267.5 349.5,269.5C 343.974,269.179 338.64,269.512 333.5,270.5 Z"/></g>
<g><path style="opacity:0.737" fill="#9c9ea2" d="M 297.5,263.5 C 296.167,265.5 294.5,267.167 292.5,268.5C 293.167,265.833 294.833,264.167 297.5,263.5 Z"/></g>
<g><path style="opacity:0.894" fill="#898c91" d="M 91.5,264.5 C 92.7095,264.932 93.7095,265.599 94.5,266.5C 92.8212,266.715 91.8212,266.048 91.5,264.5 Z"/></g>
<g><path style="opacity:0.627" fill="#aaabaf" d="M 231.5,270.5 C 231.5,270.167 231.5,269.833 231.5,269.5C 233.199,269.34 234.866,269.506 236.5,270C 237.252,270.671 237.586,271.504 237.5,272.5C 235.858,270.919 233.858,270.253 231.5,270.5 Z"/></g>
<g><path style="opacity:0.004" fill="#dfdfe0" d="M 301.5,270.5 C 302.568,269.566 303.901,269.232 305.5,269.5C 304.531,270.309 303.698,271.309 303,272.5C 302.722,271.584 302.222,270.918 301.5,270.5 Z"/></g>
<g><path style="opacity:0.379" fill="#a8aaae" d="M 83.5,270.5 C 81.1667,270.5 78.8333,270.5 76.5,270.5C 76.5,277.833 76.5,285.167 76.5,292.5C 79.9023,292.658 83.2356,292.324 86.5,291.5C 86.3893,292.117 86.056,292.617 85.5,293C 82.1832,293.498 78.8499,293.665 75.5,293.5C 75.5,285.5 75.5,277.5 75.5,269.5C 78.3854,269.194 81.0521,269.527 83.5,270.5 Z"/></g>
<g><path style="opacity:0.251" fill="#adaeb2" d="M 97.5,270.5 C 98.9063,270.973 99.573,271.973 99.5,273.5C 98.0937,273.027 97.427,272.027 97.5,270.5 Z"/></g>
<g><path style="opacity:0.635" fill="#a9abae" d="M 121.5,273.5 C 121.56,272.957 121.893,272.624 122.5,272.5C 123.386,273.325 123.719,274.325 123.5,275.5C 122.833,274.833 122.167,274.167 121.5,273.5 Z"/></g>
<g><path style="opacity:0.012" fill="#dcdcdd" d="M 195.5,275.5 C 195.167,275.5 194.833,275.5 194.5,275.5C 194.5,274.833 194.167,274.5 193.5,274.5C 194.301,272.207 194.968,272.54 195.5,275.5 Z"/></g>
<g><path style="opacity:0.004" fill="#ecedec" d="M 334.5,274.5 C 335.833,275.167 335.833,275.167 334.5,274.5 Z"/></g>
<g><path style="opacity:0.004" fill="#e5e5e5" d="M 192.5,276.5 C 192.842,275.662 193.508,275.328 194.5,275.5C 194.591,277.698 193.925,278.031 192.5,276.5 Z"/></g>
<g><path style="opacity:0.006" fill="#d0d0d2" d="M 271.5,276.5 C 270.728,277.694 269.728,278.694 268.5,279.5C 268.672,278.508 268.338,277.842 267.5,277.5C 267.263,276.209 267.596,275.209 268.5,274.5C 268.517,272.972 269.184,272.472 270.5,273C 271.337,274.011 271.67,275.178 271.5,276.5 Z"/></g>
<g><path style="opacity:0.882" fill="#898c90" d="M 132.5,275.5 C 133.537,276.93 134.204,278.597 134.5,280.5C 132.787,279.365 132.12,277.698 132.5,275.5 Z"/></g>
<g><path style="opacity:0.007" fill="#d5d6d7" d="M 267.5,277.5 C 267.328,278.492 267.662,279.158 268.5,279.5C 268.672,280.492 268.338,281.158 267.5,281.5C 267.5,280.833 267.167,280.5 266.5,280.5C 266.263,279.209 266.596,278.209 267.5,277.5 Z"/></g>
<g><path style="opacity:0.631" fill="#a7a9ad" d="M 243.5,279.5 C 244.551,280.222 245.218,281.222 245.5,282.5C 243.278,282.025 242.611,281.025 243.5,279.5 Z"/></g>
<g><path style="opacity:0.013" fill="#dededf" d="M 266.5,280.5 C 267.167,280.5 267.5,280.833 267.5,281.5C 267.5,282.5 267.5,283.5 267.5,284.5C 269.735,284.795 271.735,284.461 273.5,283.5C 274.043,283.56 274.376,283.893 274.5,284.5C 271.232,285.487 267.898,285.82 264.5,285.5C 264.402,283.447 265.069,281.78 266.5,280.5 Z"/></g>
<g><path style="opacity:0.012" fill="#d9dadb" d="M 118.5,281.5 C 118.5,282.5 118.5,283.5 118.5,284.5C 121.636,284.518 124.302,284.185 126.5,283.5C 127.043,283.56 127.376,283.893 127.5,284.5C 124.232,285.487 120.898,285.82 117.5,285.5C 117.232,283.901 117.566,282.568 118.5,281.5 Z"/></g>
<g><path style="opacity:0.01" fill="#e0e1e1" d="M 190.5,282.5 C 192.993,284.584 195.66,284.917 198.5,283.5C 199.043,283.56 199.376,283.893 199.5,284.5C 196.232,285.487 192.898,285.82 189.5,285.5C 189.263,284.209 189.596,283.209 190.5,282.5 Z"/></g>
<g><path style="opacity:0.765" fill="#60636a" d="M 348.5,283.5 C 343.833,284.167 339.167,284.833 334.5,285.5C 334.167,285.5 333.833,285.5 333.5,285.5C 338.056,283.558 343.056,282.892 348.5,283.5 Z"/></g>
<g><path style="opacity:0.249" fill="#bbbdbf" d="M 151.5,270.5 C 152.5,270.5 153.5,270.5 154.5,270.5C 154.5,280.5 154.5,290.5 154.5,300.5C 154.116,290.422 153.116,280.422 151.5,270.5 Z"/></g>
<g><path style="opacity:0.006" fill="#ecedec" d="M 334.5,285.5 C 336.973,285.947 337.14,286.947 335,288.5C 334.517,287.552 334.351,286.552 334.5,285.5 Z"/></g>
<g><path style="opacity:0.004" fill="#ebeceb" d="M 342.5,286.5 C 343.251,285.427 344.251,285.26 345.5,286C 344.552,286.483 343.552,286.649 342.5,286.5 Z"/></g>
<g><path style="opacity:0.396" fill="#c9cacc" d="M 247.5,285.5 C 248.234,286.878 248.901,288.378 249.5,290C 248.167,290.667 248.167,291.333 249.5,292C 248.906,292.464 248.239,292.631 247.5,292.5C 247.5,290.167 247.5,287.833 247.5,285.5 Z"/></g>
<g><path style="opacity:0.247" fill="#a6a8ab" d="M 283.5,286.5 C 285.104,287.287 285.771,288.62 285.5,290.5C 284.326,289.486 283.66,288.153 283.5,286.5 Z"/></g>
<g><path style="opacity:0.004" fill="#ececec" d="M 334.5,289.5 C 335.525,289.897 335.692,290.563 335,291.5C 334.536,290.906 334.369,290.239 334.5,289.5 Z"/></g>
<g><path style="opacity:0.631" fill="#97999e" d="M 89.5,288.5 C 89.5,290.5 88.5,291.5 86.5,291.5C 87.1667,290.167 88.1667,289.167 89.5,288.5 Z"/></g>
<g><path style="opacity:0.768" fill="#5f626a" d="M 202.5,292.5 C 201.5,292.5 200.5,292.5 199.5,292.5C 194.847,291.999 190.514,292.666 186.5,294.5C 186.5,293.5 186.5,292.5 186.5,291.5C 192.026,291.179 197.36,291.512 202.5,292.5 Z"/></g>
<g><path style="opacity:0.767" fill="#6f7178" d="M 277.5,294.5 C 273.137,292.489 268.471,291.989 263.5,293C 262.934,293.995 262.267,294.828 261.5,295.5C 261.33,294.178 261.663,293.011 262.5,292C 267.489,291.501 272.489,291.334 277.5,291.5C 277.5,292.5 277.5,293.5 277.5,294.5 Z"/></g>
<g><path style="opacity:0.82" fill="#9d9fa3" d="M 296.5,292.5 C 295.041,292.433 293.708,292.766 292.5,293.5C 293.103,289.88 294.436,289.547 296.5,292.5 Z"/></g>
<g><path style="opacity:0.005" fill="#ebeceb" d="M 126.5,292.5 C 127.791,292.263 128.791,292.596 129.5,293.5C 128.105,294.815 127.105,294.481 126.5,292.5 Z"/></g>
<g><path style="opacity:0.004" fill="#eaebea" d="M 199.5,293.5 C 198.833,294.167 198.833,294.167 199.5,293.5 Z"/></g>
<g><path style="opacity:0.259" fill="#b6b7ba" d="M 199.5,293.5 C 199.5,293.167 199.5,292.833 199.5,292.5C 200.5,292.5 201.5,292.5 202.5,292.5C 203.371,295.112 204.037,297.779 204.5,300.5C 203.372,297.788 201.706,295.455 199.5,293.5 Z"/></g>
<g><path style="opacity:0.514" fill="#a5a7aa" d="M 227.5,284.5 C 227.5,287.5 227.5,290.5 227.5,293.5C 231.319,293.586 234.985,292.919 238.5,291.5C 237.653,292.966 236.32,293.8 234.5,294C 231.854,294.497 229.187,294.664 226.5,294.5C 226.187,290.958 226.521,287.625 227.5,284.5 Z"/></g>
<g><path style="opacity:0.882" fill="#898c91" d="M 138.5,291.5 C 139.537,292.93 140.204,294.597 140.5,296.5C 138.787,295.365 138.12,293.698 138.5,291.5 Z"/></g>
<g><path style="opacity:0.877" fill="#888b90" d="M 176.5,297.5 C 177.334,298.748 178.667,299.415 180.5,299.5C 182.455,299.276 184.121,298.609 185.5,297.5C 185.778,299.346 185.111,300.68 183.5,301.5C 181.013,301.218 178.347,301.218 175.5,301.5C 175.232,299.901 175.566,298.568 176.5,297.5 Z"/></g>
<g><path style="opacity:0.976" fill="#74dfdd" d="M 174.5,333.5 C 174.5,328.833 174.5,324.167 174.5,319.5C 173.167,319.5 171.833,319.5 170.5,319.5C 169.226,318.811 169.226,317.977 170.5,317C 173.5,316.333 176.5,316.333 179.5,317C 180.694,319.658 179.694,320.824 176.5,320.5C 176.666,324.846 176.499,329.179 176,333.5C 175.31,334.738 174.81,334.738 174.5,333.5 Z"/></g>
<g><path style="opacity:0.959" fill="#8fe2df" d="M 127.5,317.5 C 128.833,317.5 130.167,317.5 131.5,317.5C 131.949,323.352 131.449,329.019 130,334.5C 129.586,334.043 129.086,333.709 128.5,333.5C 127.505,328.208 127.172,322.875 127.5,317.5 Z"/></g>
<g><path style="opacity:0.987" fill="#7ee0de" d="M 259.5,328.5 C 258.341,326.75 256.674,325.75 254.5,325.5C 250.889,321.607 251.889,318.607 257.5,316.5C 261.148,317.473 262.814,319.807 262.5,323.5C 260.328,322.199 257.995,321.199 255.5,320.5C 255.5,321.5 255.5,322.5 255.5,323.5C 260.863,323.688 263.03,326.355 262,331.5C 259.626,335.116 256.792,335.449 253.5,332.5C 252.724,326.457 253.891,326.124 257,331.5C 258.417,330.922 259.25,329.922 259.5,328.5 Z"/></g>
<g><path style="opacity:0.247" fill="#bde7e7" d="M 170.5,319.5 C 171.833,319.5 173.167,319.5 174.5,319.5C 174.5,324.167 174.5,328.833 174.5,333.5C 173.515,329.366 173.182,325.032 173.5,320.5C 172.209,320.737 171.209,320.404 170.5,319.5 Z"/></g>
<g><path style="opacity:1" fill="#7ee0de" d="M 203.5,316.5 C 212.243,317.659 215.076,322.326 212,330.5C 207.973,335.061 203.473,335.561 198.5,332C 194.754,324.958 196.421,319.791 203.5,316.5 Z M 202.5,320.5 C 208.745,320.222 210.912,322.889 209,328.5C 206.145,332.064 203.145,332.064 200,328.5C 199.018,325.225 199.851,322.559 202.5,320.5 Z"/></g>
<g><path style="opacity:0.991" fill="#6fdfdc" d="M 108.5,331.5 C 107.666,330.252 106.333,329.585 104.5,329.5C 102.667,329.585 101.334,330.252 100.5,331.5C 99.6215,334.774 98.2881,335.107 96.5,332.5C 98.3052,327.751 100.305,323.085 102.5,318.5C 103.242,317.713 104.075,317.047 105,316.5C 107.884,321.814 110.384,327.314 112.5,333C 110.771,334.545 109.438,334.045 108.5,331.5 Z M 103.5,324.5 C 104.289,324.783 104.956,325.283 105.5,326C 104.184,326.528 103.517,326.028 103.5,324.5 Z"/></g>
<g><path style="opacity:0.11" fill="#d0e9e8" d="M 103.5,324.5 C 103.369,323.624 103.702,322.957 104.5,322.5C 109.065,327.124 108.065,328.624 101.5,327C 102.066,326.005 102.733,325.172 103.5,324.5 Z M 103.5,324.5 C 103.517,326.028 104.184,326.528 105.5,326C 104.956,325.283 104.289,324.783 103.5,324.5 Z"/></g>
<g><path style="opacity:0.031" fill="#e3ebeb" d="M 254.5,325.5 C 256.674,325.75 258.341,326.75 259.5,328.5C 257.012,329.412 255.345,328.412 254.5,325.5 Z"/></g>
<g><path style="opacity:0.039" fill="#e8eaea" d="M 108.5,331.5 C 105.579,330.622 102.912,330.622 100.5,331.5C 101.334,330.252 102.667,329.585 104.5,329.5C 106.333,329.585 107.666,330.252 108.5,331.5 Z"/></g>
<g><path style="opacity:0.914" fill="#7ae0de" d="M 286.5,316.5 C 290.749,316.87 293.916,318.87 296,322.5C 296.178,325.94 296.345,329.273 296.5,332.5C 296.192,333.308 295.692,333.975 295,334.5C 289.143,335.659 284.143,333.992 280,329.5C 278.056,322.98 280.223,318.646 286.5,316.5 Z M 284.5,329.5 C 286.167,329.5 287.833,329.5 289.5,329.5C 288.084,331.851 286.417,331.851 284.5,329.5 Z M 291.5,327.5 C 290.796,325.656 289.463,325.156 287.5,326C 286.461,327.617 285.461,328.783 284.5,329.5C 281.637,326.41 281.971,323.577 285.5,321C 289.745,320.123 292.412,321.79 293.5,326C 293.164,327.03 292.497,327.53 291.5,327.5 Z"/></g>
<g><path style="opacity:0.026" fill="#e7ebeb" d="M 291.5,327.5 C 288.833,326.167 288.167,326.833 289.5,329.5C 287.833,329.5 286.167,329.5 284.5,329.5C 285.461,328.783 286.461,327.617 287.5,326C 289.463,325.156 290.796,325.656 291.5,327.5 Z"/></g>
<g><path style="opacity:0.791" fill="#9de4e3" d="M 314.5,333.5 C 313.349,328.35 313.183,323.016 314,317.5C 314.667,316.167 315.333,316.167 316,317.5C 316.499,322.155 316.666,326.821 316.5,331.5C 317.822,331.67 318.989,331.337 320,330.5C 323.293,333.258 322.626,334.591 318,334.5C 316.615,334.486 315.449,334.152 314.5,333.5 Z"/></g>
<g><path style="opacity:1" fill="#08d9d5" d="M 314.5,333.5 C 314.334,328.489 314.501,323.489 315,318.5C 315.499,323.155 315.666,327.821 315.5,332.5C 317.199,332.34 318.866,332.506 320.5,333C 318.527,333.495 316.527,333.662 314.5,333.5 Z"/></g>
</svg>
